<svg width="45" height="46" viewBox="0 0 45 46" fill="none" xmlns="http://www.w3.org/2000/svg">
<g clip-path="url(#clip0_13_942)">
<path d="M40.5 18.7509C40.5 32.1145 23.25 43.5691 23.25 43.5691C23.25 43.5691 6 32.1145 6 18.7509C6 14.194 7.81741 9.82375 11.0524 6.60153C14.2874 3.37931 18.675 1.56909 23.25 1.56909C27.825 1.56909 32.2126 3.37931 35.4476 6.60153C38.6826 9.82375 40.5 14.194 40.5 18.7509Z" stroke="white" stroke-width="1.81818" stroke-linecap="round" stroke-linejoin="round"/>
<path d="M22.5 25.5691C25.8137 25.5691 28.5 22.8828 28.5 19.5691C28.5 16.2554 25.8137 13.5691 22.5 13.5691C19.1863 13.5691 16.5 16.2554 16.5 19.5691C16.5 22.8828 19.1863 25.5691 22.5 25.5691Z" stroke="white" stroke-width="1.81818" stroke-linecap="round" stroke-linejoin="round"/>
</g>
<defs>
<clipPath id="clip0_13_942">
<rect width="45" height="45" fill="white" transform="translate(0 0.0690918)"/>
</clipPath>
</defs>
</svg>
